# xmcd
#
# Track frame offsets:
#	150
#	16482
#	38878
#	56235
#	75751
#	95680
#	113313
#	131836
#	147653
#	166042
#	182619
#	199302
#
# Disc length: 2939 seconds
#
# Revision: 1
# Processed by: cddbd v1.5PL3 Copyright (c) Steve Scherf et al.
# Submitted via: audiograbber 1.83.01
#
DISCID=9d0b790c
DTITLE=Sasha - You
DYEAR=1900
DGENRE=
TTITLE0=Let me be the one
TTITLE1=Love is all around
TTITLE2=Take good care
TTITLE3=Something stupid
TTITLE4=Chemical reaction
TTITLE5=Club c'est la vie
TTITLE6=Pretty thing
TTITLE7=Take my hands
TTITLE8=Don't you forget me
TTITLE9=Owner of my heart
TTITLE10=It ain't that bad
TTITLE11=Reach inside
EXTD=
EXTT0=
EXTT1=
EXTT2=
EXTT3=
EXTT4=
EXTT5=
EXTT6=
EXTT7=
EXTT8=
EXTT9=
EXTT10=
EXTT11=
PLAYORDER=
